# xmcd
#
# Track frame offsets: 
#        150
#        11353
#        25998
#        43604
#        54677
#        69989
#        83642
#        97982
#        118438
#        138548
#
# Disc length: 2079 seconds
#
# Revision: 0
# Processed by: cddbd v1.5.2PL0 Copyright (c) Steve Scherf et al.
# Submitted via: ExactAudioCopy v0.95b2
#
DISCID=81081d0a
DTITLE=Blind Boys of Alabama - Retrospective disc1
DYEAR=2007
DGENRE=Gospel
TTITLE0=Amazing Grace (Part 1)
TTITLE1=Down By The Riverside
TTITLE2=You`ll Never Walk Alone
TTITLE3=If I Had A Hammer (Part 1)
TTITLE4=Nobody Knows The Trouble I`ve Seen
TTITLE5=Rain
TTITLE6=Leaning On The Everlasting Arms
TTITLE7=He
TTITLE8=Sing A Song
TTITLE9=There`s Nothing In This World Without A Heart
EXTD=
EXTT0=
EXTT1=
EXTT2=
EXTT3=
EXTT4=
EXTT5=
EXTT6=
EXTT7=
EXTT8=
EXTT9=
PLAYORDER=
